PathFileType	4	(X/Y/Z)	..\data\2015035\dynamic\2015035_C5_03.trc
DataRate	CameraRate	NumFrames	NumMarkers	Units	OrigDataRate	OrigDataStartFrame	OrigNumFrames
100.000000	100.000000	4	52	mm	100.000000	140	161
Frame#	Time	L_IAS			L_IPS			R_IPS			R_IAS			L_FTC			L_FLE			L_FME			L_FAX			L_TTC			L_FAL			L_TAM			L_FCC			L_FM1			L_FM2			L_FM5			R_FTC			R_FLE			R_FME			R_FAX			R_TTC			R_FAL			R_TAM			R_FCC			R_FM1			R_FM2			R_FM5			CV7			TV10			SXS			SJN			L_SIA			L_SRS			L_SAA			L_SAE			L_HLE			L_HME			L_UOA			L_RSP			L_UHE			L_HM2			L_HM5			R_SIA			R_SRS			R_SAA			R_SAE			R_HLE			R_HME			R_UOA			R_RSP			R_UHE			R_HM2			R_HM5			
		X1	Y1	Z1	X2	Y2	Z2	X3	Y3	Z3	X4	Y4	Z4	X5	Y5	Z5	X6	Y6	Z6	X7	Y7	Z7	X8	Y8	Z8	X9	Y9	Z9	X10	Y10	Z10	X11	Y11	Z11	X12	Y12	Z12	X13	Y13	Z13	X14	Y14	Z14	X15	Y15	Z15	X16	Y16	Z16	X17	Y17	Z17	X18	Y18	Z18	X19	Y19	Z19	X20	Y20	Z20	X21	Y21	Z21	X22	Y22	Z22	X23	Y23	Z23	X24	Y24	Z24	X25	Y25	Z25	X26	Y26	Z26	X27	Y27	Z27	X28	Y28	Z28	X29	Y29	Z29	X30	Y30	Z30	X31	Y31	Z31	X32	Y32	Z32	X33	Y33	Z33	X34	Y34	Z34	X35	Y35	Z35	X36	Y36	Z36	X37	Y37	Z37	X38	Y38	Z38	X39	Y39	Z39	X40	Y40	Z40	X41	Y41	Z41	X42	Y42	Z42	X43	Y43	Z43	X44	Y44	Z44	X45	Y45	Z45	X46	Y46	Z46	X47	Y47	Z47	X48	Y48	Z48	X49	Y49	Z49	X50	Y50	Z50	X51	Y51	Z51	X52	Y52	Z52	

141	1.4	798.3717041015627	970.6856079101565	156.9047851562501	606.5858154296876	991.3076782226565	246.4629669189455	611.2639770507814	986.420104980469	331.8379821777345	795.2818603515627	965.5063476562502	421.8157348632815	714.4516601562501	903.8848876953127	100.4424057006837	882.9936523437502	491.9489135742189	101.3040695190431	891.8679809570315	499.9798889160157	235.845916748047	868.2749023437502	441.878143310547	99.00088500976575	937.347106933594	415.0012817382814	146.0278320312501	792.6052856445315	89.30455017089845	147.7653961181642	834.3474731445315	104.0113906860352	235.6772918701174	753.7451782226564	58.09278106689455	208.2295074462892	940.9207763671877	27.65101623535157	215.646697998047	946.1876220703127	42.40893554687501	166.843704223633	894.2841796875002	27.25021553039551	118.9865646362306	710.4310913085938	878.1795654296877	471.6095275878909	665.6805419921876	457.1864318847657	406.8221740722658	659.4966430664064	471.5139465332032	284.9360656738282	635.4200439453126	415.7433471679689	407.1982727050783	692.2449340820314	389.3894042968751	352.6153564453126	544.9425048828126	63.1771697998047	364.6062316894532	586.9617309570314	82.00816345214845	277.688201904297	508.0566101074219	25.8016586303711	316.7551574707032	702.1688232421876	14.22931575775147	294.9578857421877	719.2077026367189	22.61031723022461	354.4370727539064	648.6537475585939	12.48910522460938	400.2105712890627	645.3890380859376	1494.35302734375	293.7527465820314	587.0697021484376	1204.500244140625	299.4235839843751	834.157897949219	1242.296875	282.198455810547	778.6444091796877	1409.167114257813	288.2794799804689	566.9201049804689	1282.194580078125	183.7185363769532	591.7899780273439	1434.574462890625	211.2473297119142	662.1621704101564	1431.288208007813	108.4729614257814	708.5458984375001	1430.67529296875	96.65972900390636	651.2734985351564	1133.21044921875	8.839890480041586	632.5947265625001	1109.6826171875	86.3781280517579	599.3511352539064	1105.019165039063	37.02766036987313	716.2947387695314	862.8545532226565	31.41297531127939	670.8874511718751	872.221130371094	-32.92134094238273	729.4012451171876	773.7116699218752	29.40129661560068	648.6750488281251	794.7326660156252	-39.39442443847649	589.6087646484376	1278.563110351563	432.3206176757814	613.0748901367189	1422.95263671875	399.9351806640627	692.5137939453125	1409.991088867188	494.7120056152345	744.5577392578125	1412.63427734375	498.4680786132815	787.4517822265626	1118.558471679688	585.2888793945315	742.0189819335938	1095.31689453125	505.4190368652346	754.6652221679688	1073.039306640625	565.750671386719	1002.3212890625	953.754333496094	516.3887939453127	958.2330932617189	912.369812011719	568.0045166015627	1072.8828125	894.8466796875002	515.0134277343752	990.3396606445314	852.0742797851565	567.845397949219	
142	1.41	813.0061035156252	967.2463378906252	156.619598388672	620.8408813476564	988.3750000000002	245.4669189453126	625.1278686523439	983.9478149414065	330.7468261718751	808.9295654296877	962.6439208984377	421.9173889160159	729.0753784179689	900.5037231445315	100.2832794189454	900.2813110351565	489.1357727050782	102.7102050781251	905.9072875976565	496.3473510742189	237.6989593505861	887.8375244140627	438.2580566406251	100.2578048706056	957.4934082031252	414.907196044922	147.6935119628908	837.3646240234377	81.30434417724611	145.1147766113283	877.2315673828127	97.98714447021487	233.4120025634767	800.2119140625002	46.98130416870118	205.4173431396486	988.997497558594	29.66166877746583	212.8509826660158	993.2720336914065	44.90013122558594	164.0581054687501	942.809509277344	26.64780235290528	116.1274795532228	722.6594848632812	876.335632324219	471.2238769531252	671.2081298828126	456.4736633300782	406.9016113281252	665.9154052734376	470.7471923828126	285.2402648925782	640.5780639648439	415.5545349121095	407.250213623047	696.8433837890626	388.1107482910157	352.8986206054689	545.4699707031251	63.96793746948244	364.0615539550782	587.7622680664064	82.52138519287111	277.2159729003907	508.2010192871094	27.00747299194337	316.0796508789064	702.3458862304689	14.1717758178711	294.9298095703127	719.2921142578126	22.49431419372559	354.4922790527345	648.4907226562501	12.58564186096192	399.9312438964845	660.3764038085939	1491.869995117188	293.2444458007814	601.4282836914064	1202.190795898438	298.7216186523439	848.477478027344	1239.197143554688	281.544158935547	793.487976074219	1406.228271484375	287.4331054687502	580.1592407226564	1279.799438476563	183.9809570312501	606.2695312500001	1432.150756835938	211.1165924072267	676.0548706054689	1428.517822265625	108.2126922607423	722.2454223632814	1427.617553710938	95.92652130126963	659.3626708984376	1130.878173828125	8.995162963867269	638.5245361328126	1108.389770507813	87.15260314941416	607.7498168945314	1103.859741210938	37.89989089965828	720.0694580078126	859.4205322265627	29.71467590332041	674.3782958984376	869.9614868164065	-33.94262313842766	731.6428222656251	770.2194824218752	27.29570198059092	650.4362182617189	792.9334106445315	-40.18498992919915	604.8120117187501	1275.974975585938	431.6029052734377	628.2402343750001	1420.49609375	399.550994873047	707.9154052734375	1407.413696289063	494.1867675781252	760.0875854492188	1410.271484375	497.759948730469	805.0208740234376	1117.680541992188	586.9937133789065	759.4750366210938	1093.011352539063	507.4598388671877	773.2798461914064	1070.941162109375	567.6760864257815	1024.511352539063	960.8027954101565	514.7424316406252	982.4555664062501	917.1309204101565	566.2122192382815	1097.325561523438	905.0462646484377	512.263610839844	1017.144470214844	858.1257324218752	565.1300048828127	
143	1.42	827.7224731445315	963.549499511719	156.3028411865236	635.1449584960939	985.1738891601565	244.3550109863283	639.0284423828126	981.2534179687502	329.5259704589845	822.544616699219	959.655456542969	422.0137023925784	743.7153320312501	896.715270996094	100.1146240234376	916.7822265625002	485.9187316894532	104.0665435791017	919.4534301757815	492.0234680175782	239.6183319091799	906.7302246093752	434.5021362304689	101.505096435547	976.954772949219	414.603485107422	149.3022308349611	881.889343261719	74.72003173828126	142.3932342529298	919.7662353515627	93.27709960937501	231.0467987060549	846.6353149414065	37.43937683105469	202.5106811523439	1036.154296875	33.19843673706055	210.0729370117189	1039.449462890625	48.81211090087892	161.283905029297	990.5808105468752	27.51470947265626	113.2539749145509	734.9080200195312	874.3677368164065	470.8113708496096	677.1680297851564	455.7154235839845	406.9352416992189	672.8258666992189	469.8631896972657	285.4930725097657	646.1198120117189	415.3332519531251	407.2496337890627	701.8083496093751	386.7983703613282	353.1325683593752	545.9780883789064	64.87951660156251	363.6587219238282	588.5302734375001	83.07368469238283	276.8599243164064	508.2278442382813	28.35597229003907	315.5874328613282	702.4512939453126	14.12082862854004	294.917694091797	719.3400878906251	22.37840461730957	354.5462951660158	648.3104248046876	12.65465068817139	399.7063598632814	675.4372558593751	1489.163330078125	292.6645812988282	615.8001708984376	1199.69384765625	297.8606567382814	862.8388671875002	1235.873779296875	280.7976379394533	808.3933715820315	1403.063110351563	286.4913024902345	593.4570922851564	1277.229370117188	184.2004699707032	620.8002319335939	1429.522216796875	210.914764404297	689.9794921875001	1425.588134765625	107.8911056518556	735.9561157226564	1424.4248046875	95.12515258789072	667.0942993164064	1128.326293945313	8.964325904846275	643.7048339843751	1107.005126953125	87.79328155517588	616.3387451171876	1102.542724609375	38.84144973754891	724.4866333007814	856.075622558594	27.88679122924814	678.2643432617189	867.678894042969	-34.87839889526359	734.8379516601564	766.8958740234376	24.89614677429209	652.7308959960939	791.059753417969	-40.73058700561516	620.0108642578126	1273.17041015625	430.7357177734377	643.4927368164064	1417.847900390625	399.0924682617189	723.4732055664062	1404.59375	493.5818786621096	775.8038940429689	1407.628662109375	496.9168395996096	822.5503540039064	1116.547607421875	588.4979248046877	776.9017944335939	1090.429931640625	509.3174438476565	791.8358764648439	1068.65966796875	569.407409667969	1046.098022460938	967.4056396484377	512.962585449219	1006.172546386719	921.6804809570315	564.3760986328127	1120.986572265625	914.8215332031252	509.4566345214846	1043.318725585938	864.0547485351565	562.473571777344	
144	1.43	842.5250244140627	959.702331542969	155.9789886474611	649.5043945312501	981.7847290039065	243.1257629394533	652.9763793945314	978.398620605469	328.1763610839845	836.1238403320315	956.6116333007815	422.1097412109377	758.4063720703126	892.631530761719	99.91602325439466	932.5803222656252	482.4044189453126	105.3434066772462	932.6409301757815	487.2081604003907	241.5594635009767	924.997497558594	430.7059020996095	102.7229232788087	995.788269042969	414.1603088378907	150.8399963378908	925.707214355469	69.58065795898439	139.7120971679689	961.5408935546877	89.90795898437501	228.6855926513674	892.5146484375002	29.52963066101075	199.6256103515627	1081.966552734375	38.1597023010254	207.4173889160158	1084.31201171875	54.04112625122072	158.626922607422	1037.13671875	29.76495361328126	110.4891433715822	747.1845703125	872.3245239257815	470.3619689941409	683.5174560546876	454.9446411132814	406.9227905273439	680.1948242187501	468.905731201172	285.6753845214845	651.9974975585939	415.1035156250001	407.1936035156252	707.1010131835939	385.487518310547	353.308563232422	546.4504394531251	65.94674682617189	363.4270324707032	589.2296752929689	83.68721771240236	276.6331176757814	508.1252136230469	29.86900901794434	315.308563232422	702.4887084960939	14.07719993591309	294.9250793457033	719.3572998046876	22.26444625854493	354.6001586914064	648.1180419921876	12.70109558105469	399.5476074218752	690.5399169921876	1486.284790039063	292.001190185547	630.1759643554689	1197.05712890625	296.8655395507814	877.2358398437502	1232.408203125	279.9722900390627	823.3291015625002	1399.7421875	285.4584350585939	606.8237304687501	1274.529541015625	184.3800506591798	635.3615112304689	1426.7333984375	210.6369628906251	703.9262695312501	1422.551513671875	107.5022506713868	749.6705932617189	1421.146118164063	94.25685882568369	674.3872680664064	1125.560546875	8.723546028137291	648.2932128906251	1105.549438476563	88.29609680175791	625.1633300781251	1101.10107421875	39.80710983276376	729.5377807617189	852.8272094726565	25.94495201110849	682.5550537109376	865.391540527344	-35.73828887939445	738.9254150390626	763.7166748046876	22.24612236022958	655.5600585937501	789.1260986328127	-41.06813430786126	635.1795654296876	1270.217529296875	429.7533569335939	658.7897949218751	1415.066650390625	398.557342529297	739.1401977539062	1401.607299804688	492.8938903808596	791.6498413085939	1404.786987304688	495.9398193359377	839.9924316406251	1115.204711914063	589.7573852539065	794.2855224609376	1087.650512695313	510.9256896972659	810.2884521484376	1066.247680664063	570.8869628906252	1067.08251953125	973.5279541015627	511.0850524902346	1029.317504882813	925.981384277344	562.501892089844	1143.865112304688	924.0889282226565	506.6510314941409	1068.772705078125	869.7984619140627	559.8846435546877	
